<?xml version="1.0" encoding="UTF-8"?>
<svg version="1.1" xmlns="http://www.w3.org/2000/svg" width="500" height="500">
<path d="M0 0 C165 0 330 0 500 0 C500 165 500 330 500 500 C335 500 170 500 0 500 C0 335 0 170 0 0 Z " fill="#CDADA2" transform="translate(0,0)"/>
<path d="M0 0 C165 0 330 0 500 0 C500 165 500 330 500 500 C335 500 170 500 0 500 C0 335 0 170 0 0 Z M107 64 C91.70956518 81.45322659 85.79720017 102.4163006 85.8125 125.3125 C85.81330566 126.55620361 85.81411133 127.79990723 85.81494141 129.08129883 C85.89987008 141.9396664 86.82065379 154.50651279 90 167 C90.20367187 167.96679688 90.40734375 168.93359375 90.6171875 169.9296875 C92.39208226 178.24576742 95.04326335 186.03806863 98 194 C99.31428638 197.76839636 100.58860478 201.54098208 101.671875 205.3828125 C102.92167945 209.81267493 104.36007475 213.96539413 106.30859375 218.140625 C108.43818833 222.75783968 110.48217502 227.40306784 112.4855957 232.07617188 C121.61338729 253.33170769 131.39976691 274.18492436 143.75976562 293.79150391 C144.31857422 294.68144043 144.87738281 295.57137695 145.453125 296.48828125 C145.96520508 297.28403564 146.47728516 298.07979004 147.00488281 298.8996582 C148 301 148 301 147 304 C147.43739253 306.10465741 147.43739253 306.10465741 148.30078125 308.3671875 C148.61305664 309.24197754 148.92533203 310.11676758 149.24707031 311.01806641 C149.59866211 311.96085449 149.95025391 312.90364258 150.3125 313.875 C150.67569336 314.8551709 151.03888672 315.8353418 151.41308594 316.84521484 C165.4877617 354.01022446 188.57872042 386.46365653 216 415 C216.46647949 415.48839355 216.93295898 415.97678711 217.41357422 416.47998047 C223.86723896 423.20471268 230.61028794 429.32169381 238 435 C239.03511719 435.80179687 240.07023438 436.60359375 241.13671875 437.4296875 C254.33847914 447.39478677 268.76120889 455.43444205 285 459 C285.99422974 459.25946411 285.99422974 459.25946411 287.00854492 459.52416992 C312.58515007 465.92329168 340.80691614 458.15918643 363.17578125 445.359375 C375.12048227 438.1743086 385.91696034 429.58574688 396 420 C397.28572032 418.88891492 398.5770735 417.78430153 399.875 416.6875 C408.53991736 409.14812861 416.61784634 400.79059087 424 392 C424.7940625 391.08347656 425.588125 390.16695313 426.40625 389.22265625 C433.38921529 381.13435364 439.95089613 372.75654141 446.3515625 364.20166016 C447.43054488 362.76056669 448.51372457 361.32260403 449.6015625 359.88818359 C474.09387023 327.53088912 496.5652328 288.70468837 491.53515625 246.62890625 C486.97339291 214.83820996 466.11264296 188.8740671 441 170 C436.67439529 166.84995541 432.30717505 163.75989722 427.91796875 160.69921875 C427.25531006 160.23499512 426.59265137 159.77077148 425.90991211 159.29248047 C424.68647839 158.46455536 423.44069052 157.66822016 422.17016602 156.91455078 C418.1420033 154.50728223 418.1420033 154.50728223 417.37890625 151.78125 C417.43949219 151.0284375 417.50007813 150.275625 417.5625 149.5 C417.60503906 148.7471875 417.64757812 147.994375 417.69140625 147.21875 C418 145 418 145 418.50439453 143.23339844 C421.73980899 128.65331399 419.85108549 111.01611205 415 97 C414.54947266 95.52466797 414.54947266 95.52466797 414.08984375 94.01953125 C410.25376659 82.24559745 403.61554733 72.76939639 395 64 C394.49001465 63.45359863 393.9800293 62.90719727 393.45458984 62.34423828 C389.24319582 57.93350254 384.85207303 54.62167638 379.625 51.5 C378.84044434 51.02860596 378.05588867 50.55721191 377.24755859 50.0715332 C356.699866 38.03009916 333.41601147 32.22595028 310 29 C308.93668457 28.84901855 307.87336914 28.69803711 306.77783203 28.54248047 C246.92408476 20.4224126 152.76427733 16.57977843 107 64 Z " fill="#FEFEFE" transform="translate(0,0)"/>
<path d="M0 0 C0.33 0 0.66 0 1 0 C1.15855469 0.77601563 1.31710938 1.55203125 1.48046875 2.3515625 C3.31910075 10.86412389 5.97181383 18.84566861 9 27 C10.31428638 30.76839636 11.58860478 34.54098208 12.671875 38.3828125 C13.92167945 42.81267493 15.36007475 46.96539413 17.30859375 51.140625 C19.43818833 55.75783968 21.48217502 60.40306784 23.4855957 65.07617188 C31.80404572 84.44702522 40.90262833 103.01369455 51.44726562 121.27441406 C54.03259118 125.81255471 56.51869178 130.40436883 59 135 C58.34 135 57.68 135 57 135 C72.39921471 178.13920463 95.26418601 214.92981402 127 248 C127.85335937 248.89460937 128.70671875 249.78921875 129.5859375 250.7109375 C135.35932931 256.63003005 141.45142229 261.95465781 148 267 C148.52045898 267.4021875 149.04091797 267.804375 149.57714844 268.21875 C158.82236356 275.29219612 168.60584169 280.79033712 179 286 C157.72945675 300.18036217 131.28141972 304.43539388 106.26171875 300.1640625 C45.20883305 287.51432906 -21.63593282 232.33491306 -55.68359375 181.03125 C-64.09891255 167.99162481 -70.64947082 154.90563961 -74.52734375 139.82861328 C-74.91040074 138.34664176 -75.32540321 136.87295241 -75.75 135.40234375 C-82.31242033 109.5628137 -72.28879598 83.76613111 -59.37109375 61.8046875 C-55.72167159 55.81813024 -51.47665667 50.38334127 -47 45 C-46.51547363 44.40864258 -46.03094727 43.81728516 -45.53173828 43.20800781 C-34.35220667 29.6239301 -21.73752932 17.952895 -8 7 C-6.80967402 5.98246327 -5.62163624 4.96223329 -4.4375 3.9375 C-2 2 -2 2 0 2 C0 1.34 0 0.68 0 0 Z " fill="#FCEAAA" transform="translate(90,167)"/>
<path d="M0 0 C1.01723145 0.13390137 2.03446289 0.26780273 3.08251953 0.40576172 C24.5801844 3.30799924 46.1680028 9.01161597 65 20 C65.89501221 20.50370117 65.89501221 20.50370117 66.80810547 21.01757812 C81.29208973 29.24064271 92.20464544 40.24105328 100 55 C100.60908203 56.15048828 100.60908203 56.15048828 101.23046875 57.32421875 C107.45115028 70.21842836 109.18014019 83.5787435 109.1875 97.6875 C109.19974609 98.90373047 109.21199219 100.11996094 109.22460938 101.37304688 C109.23629258 108.62831889 109.18736938 116.01150406 107 123 C106.34 123.33 105.68 123.66 105 124 C102.80380923 123.04969762 100.74397057 122.04371 98.63671875 120.921875 C97.69322319 120.4310141 97.69322319 120.4310141 96.73066711 119.93023682 C94.71229349 118.87758539 92.70002885 117.81377554 90.6875 116.75 C89.34216113 116.04747909 87.996462 115.34564761 86.65039062 114.64453125 C76.96487043 109.58116414 76.96487043 109.58116414 73.26806641 107.35449219 C70.50755376 105.70591047 67.69804908 104.62489977 64.6875 103.5 C63.54152344 103.06945312 62.39554687 102.63890625 61.21484375 102.1953125 C59.62349609 101.60363281 59.62349609 101.60363281 58 101 C57.23816406 100.70867187 56.47632813 100.41734375 55.69140625 100.1171875 C28.96700728 89.90061646 1.9020125 84.64378509 -26.6875 84.625 C-27.48824951 84.62300598 -28.28899902 84.62101196 -29.11401367 84.61895752 C-42.0812677 84.62262134 -54.7971615 85.50042194 -67.4375 88.625 C-68.50871094 88.88539062 -69.57992187 89.14578125 -70.68359375 89.4140625 C-71.44800781 89.60742188 -72.21242187 89.80078125 -73 90 C-73.33 89.34 -73.66 88.68 -74 88 C-99.98841066 87.69143048 -124.47010698 91.52200122 -149 100 C-149.67981934 100.22913086 -150.35963867 100.45826172 -151.06005859 100.69433594 C-173.65032482 108.35978456 -196.79867567 120.44557067 -215.17578125 135.8203125 C-215.77777344 136.20960938 -216.37976563 136.59890625 -217 137 C-217.99 136.67 -218.98 136.34 -220 136 C-220.9140625 133.2265625 -220.9140625 133.2265625 -221.625 129.625 C-221.86476563 128.46226562 -222.10453125 127.29953125 -222.3515625 126.1015625 C-227.11815973 98.25459971 -225.67614414 68.2361439 -210 44 C-190.57803134 17.43156753 -159.46031689 6.10652393 -127.96875 0.96484375 C-86.18784204 -5.1751226 -41.81725102 -5.87166596 0 0 Z " fill="#417CF7" transform="translate(310,29)"/>
<path d="M0 0 C6.61938805 0.45416042 11.77816881 5.30435619 17 9 C17.96421875 9.67289063 18.9284375 10.34578125 19.921875 11.0390625 C45.54212775 29.52719083 68.9196412 55.49478167 74.25 87.625 C80.05787623 135.77757386 53.83483104 176.88371233 25.375 213.3125 C17.88478656 222.78894052 10.01605115 231.9660376 2 241 C1.33871094 241.75410156 0.67742187 242.50820313 -0.00390625 243.28515625 C-9.29476049 253.77268582 -18.98514892 263.32212771 -30 272 C-31.17949219 272.98033203 -31.17949219 272.98033203 -32.3828125 273.98046875 C-58.66881859 295.71196883 -88.66023572 307.32073193 -123 305 C-128.50065532 304.2265719 -133.72065795 302.71670913 -139 301 C-139.98226563 300.69191406 -140.96453125 300.38382812 -141.9765625 300.06640625 C-143.99617228 299.41300309 -146.00098573 298.71393367 -148 298 C-146.6581656 293.97449681 -144.5772427 293.11714364 -141 291 C-140.34 291 -139.68 291 -139 291 C-139 290.34 -139 289.68 -139 289 C-137.62666205 287.84238549 -136.19776682 286.75056148 -134.75 285.6875 C-96.07849524 255.42759373 -71.24374759 199.16949971 -60.375 152.6875 C-60.11501221 151.57810059 -59.85502441 150.46870117 -59.5871582 149.32568359 C-58.20259892 144.10618086 -58.20259892 144.10618086 -58.56884766 138.86254883 C-58.71112793 138.24790771 -58.8534082 137.6332666 -59 137 C-58.34 136.01 -57.68 135.02 -57 134 C-56.60612212 131.67612053 -56.26513915 129.34206251 -56 127 C-55.67 127.66 -55.34 128.32 -55 129 C-54.34 129 -53.68 129 -53 129 C-52.71801758 128.26330078 -52.43603516 127.52660156 -52.14550781 126.76757812 C-51.12106098 124.29248663 -49.99128169 122.04537763 -48.671875 119.71875 C-28.85189082 84.32912463 -11.45114069 46.83146755 -3.18969727 6.89575195 C-2.19661501 2.19661501 -2.19661501 2.19661501 0 0 Z " fill="#FD7B43" transform="translate(417,156)"/>
</svg>
